# xmcd CD database file
#
# Track frame offsets:
#        150
#        18646
#        46059
#        94450
#        119221
#        172089
#        201807
#        220780
#        256607
#        281603
#        313800
#
# Disc length: 4501 seconds
#
# Revision: 0
# Processed by: cddbd v1.5.2PL0 Copyright (c) Steve Scherf et al.
# Submitted via: CUERipper 2.1.4
#
DISCID=a511930b
DTITLE=Jimi Hendrix - Winterland
DYEAR=2011
DGENRE=Rock
TTITLE0=Fire
TTITLE1=Foxey Lady
TTITLE2=Like A Rolling Stone
TTITLE3=Hey Joe
TTITLE4=Hear My Train A Comin'
TTITLE5=Sunshine Of Your Love
TTITLE6=Little Wing
TTITLE7=Are You Experienced?
TTITLE8=Manic Depression
TTITLE9=Voodoo Child (Slight Return)
TTITLE10=Purple Haze
EXTD=
EXTT0=
EXTT1=
EXTT2=
EXTT3=
EXTT4=
EXTT5=
EXTT6=
EXTT7=
EXTT8=
EXTT9=
EXTT10=
PLAYORDER=
